<?xml version="1.0" encoding="utf-8"?>
<!-- Generator: Adobe Illustrator 16.0.0, SVG Export Plug-In . SVG Version: 6.00 Build 0)  -->
<!DOCTYPE svg PUBLIC "-//W3C//DTD SVG 1.1//EN" "http://www.w3.org/Graphics/SVG/1.1/DTD/svg11.dtd">
<svg version="1.1" id="Layer_1" xmlns="http://www.w3.org/2000/svg" xmlns:xlink="http://www.w3.org/1999/xlink" x="0px" y="0px"
	 width="100px" height="100px" viewBox="0 0 100 100" enable-background="new 0 0 100 100" xml:space="preserve">
<path fill="#020202" d="M65.164,11.126H26.033c-2.627,0-4.767,2.141-4.767,4.768v68.213c0,2.63,2.14,4.768,4.767,4.768h47.932
	c2.63,0,4.768-2.138,4.768-4.768V25.869L65.164,11.126z M66.289,18.261l5.948,6.463h-5.948V18.261z M74.729,84.106
	c0,0.421-0.344,0.765-0.765,0.765H26.033c-0.421,0-0.763-0.344-0.763-0.765V15.894c0-0.421,0.342-0.762,0.763-0.762h36.251v11.595
	c0,1.104,0.899,1.999,2.003,1.999h10.442V84.106z M32.333,32.421h34c0.828,0,1.5,0.672,1.5,1.5s-0.672,1.5-1.5,1.5h-34
	c-0.828,0-1.5-0.672-1.5-1.5S31.505,32.421,32.333,32.421z M67.833,44.001c0,0.828-0.672,1.5-1.5,1.5h-34
	c-0.828,0-1.5-0.672-1.5-1.5s0.672-1.5,1.5-1.5h34C67.161,42.501,67.833,43.173,67.833,44.001z M67.833,53.751
	c0,0.828-0.672,1.5-1.5,1.5h-34c-0.828,0-1.5-0.672-1.5-1.5s0.672-1.5,1.5-1.5h34C67.161,52.251,67.833,52.923,67.833,53.751z
	 M67.833,63.667c0,0.828-0.672,1.5-1.5,1.5h-34c-0.828,0-1.5-0.672-1.5-1.5s0.672-1.5,1.5-1.5h34
	C67.161,62.167,67.833,62.839,67.833,63.667z"/>
</svg>
