<?xml version="1.0" encoding="utf-8"?>
<!-- Generator: Adobe Illustrator 16.0.0, SVG Export Plug-In . SVG Version: 6.00 Build 0)  -->
<!DOCTYPE svg PUBLIC "-//W3C//DTD SVG 1.1//EN" "http://www.w3.org/Graphics/SVG/1.1/DTD/svg11.dtd">
<svg version="1.1" id="Layer_1" xmlns="http://www.w3.org/2000/svg" xmlns:xlink="http://www.w3.org/1999/xlink" x="0px" y="0px"
	 width="32px" height="32px" viewBox="0 0 32 32" enable-background="new 0 0 32 32" xml:space="preserve">
<g class="node">
	<path fill="#333333" d="M16,0C9.256,0,2,2.033,2,6.5v19C2,29.965,9.256,32,16,32c6.743,0,14-2.035,14-6.5v-19
		C30,2.033,22.742,0,16,0z M28,25.5c0,2.484-5.373,4.5-12,4.5c-6.628,0-12-2.016-12-4.5v-3.736C6.066,23.893,11.05,25,16,25
		c4.95,0,9.934-1.107,12-3.236V25.5z M28,19.5h-0.004c0,0.01,0.004,0.021,0.004,0.031C28,22,22.627,24,16,24c-6.627,0-12-2-12-4.469
		c0-0.01,0.004-0.021,0.004-0.031H4v-3.736C6.066,17.893,11.05,19,16,19c4.95,0,9.934-1.107,12-3.236V19.5z M28,13.5h-0.004
		c0,0.01,0.004,0.021,0.004,0.031C28,16,22.627,18,16,18c-6.627,0-12-2-12-4.469c0-0.01,0.004-0.021,0.004-0.031H4v-3.436
		C6.621,12.061,11.425,13,16,13c4.575,0,9.379-0.939,12-2.936V13.5z M16,11C9.372,11,4,8.984,4,6.5C4,4.014,9.372,2,16,2
		c6.627,0,12,2.014,12,4.5C28,8.984,22.627,11,16,11z"/>
	<!-- <circle fill="#333333" cx="25" cy="26" r="1"/>
	<circle fill="#333333" cx="25" cy="20" r="1"/>
	<circle fill="#333333" cx="25" cy="14" r="1"/> -->
</g>
</svg>
