<?xml version="1.0" encoding="utf-8"?>
<!-- Generator: Adobe Illustrator 17.0.0, SVG Export Plug-In . SVG Version: 6.00 Build 0)  -->
<!DOCTYPE svg PUBLIC "-//W3C//DTD SVG 1.1//EN" "http://www.w3.org/Graphics/SVG/1.1/DTD/svg11.dtd">
<svg version="1.1" id="Layer_1" xmlns="http://www.w3.org/2000/svg" xmlns:xlink="http://www.w3.org/1999/xlink" x="0px" y="0px"
	 width="26px" height="26px" viewBox="0 0 26 26" enable-background="new 0 0 26 26" xml:space="preserve">
<path fill="#050505" d="M15.31,3.167v19.635l7.004-3.922V5.634L15.31,3.167z M21.84,4.604c-0.382-0.143-7.008-2.631-7.008-2.631
	s0.412,0.261,0.412,0.717l7.004,2.554C22.248,5.244,22.219,4.747,21.84,4.604z M13.828,1.855H4.959
	c-0.703,0-1.273,0.571-1.273,1.273v19.377c0,0.702,0.571,1.274,1.273,1.274h8.869c0.702,0,1.272-0.572,1.272-1.274V3.128
	C15.101,2.426,14.53,1.855,13.828,1.855z M14.441,22.506c0,0.339-0.273,0.614-0.613,0.614H4.959c-0.339,0-0.614-0.275-0.614-0.614
	V3.128c0-0.339,0.275-0.614,0.614-0.614h8.869c0.34,0,0.613,0.275,0.613,0.614C14.441,3.128,14.441,22.506,14.441,22.506z
	 M5.984,6.79h6.866c0.242,0,0.438-0.196,0.438-0.437V4.042c0-0.241-0.196-0.438-0.438-0.438H5.984c-0.241,0-0.437,0.197-0.437,0.438
	v2.311C5.547,6.594,5.743,6.79,5.984,6.79z M11.533,6.042h1.307v0.304h-1.307V6.042z M5.984,11.341h6.866
	c0.242,0,0.438-0.196,0.438-0.437V8.593c0-0.241-0.196-0.438-0.438-0.438H5.984c-0.241,0-0.437,0.196-0.437,0.438v2.311
	C5.547,11.146,5.743,11.341,5.984,11.341z M11.412,10.723h1.307v0.304h-1.307V10.723z M9.43,19.038
	c-0.749,0-1.358,0.609-1.358,1.357c0,0.75,0.609,1.358,1.358,1.358s1.358-0.608,1.358-1.358
	C10.788,19.647,10.179,19.038,9.43,19.038z M9.43,21.095c-0.385,0-0.698-0.313-0.698-0.699c0-0.384,0.313-0.697,0.698-0.697
	s0.698,0.313,0.698,0.697C10.128,20.781,9.815,21.095,9.43,21.095z M5.536,16.747h7.741v0.668H5.536V16.747z M5.56,15.063h7.74
	v0.667H5.56V15.063z M5.56,13.316h7.74v0.667H5.56V13.316z"/>
</svg>
